{"title":"Eternity.[Eternite].2016.720p.BRRip.AC3.x264.HORiZON-ArtSubs ","magnet":"magnet:?xt=urn:btih:3a7c571017582d2093f8d2df7e67a37140216176&dn=Eternity.%5BEternite%5D.2016.720p.BRRip.AC3.x264.HORiZON-ArtSubs+&tr=udp%3A%2F%2Ftracker.leechers-paradise.org%3A6969&tr=udp%3A%2F%2Fzer0day.ch%3A1337&tr=udp%3A%2F%2Fopen.demonii.com%3A1337&tr=udp%3A%2F%2Ftracker.coppersurfer.tk%3A6969&tr=udp%3A%2F%2Fexodus.desync.com%3A6969","uploader":"lletaif","categoryP":"video","categoryS":"movies","size":"1769039944","seeders":"0","leechers":"0","description":"Release: Eternity.[Eternite].2016.720p.BRRip.AC3.x264.HORiZON-ArtSubs \r\n\r\nIMDB: http://www.imdb.com/title/tt3564574/ \r\n\r\nSubtitle: Brazilian Portuguese \r\n\r\nPlot: The story of the women and relationships that define a family across a century. \r\n\r\nComplete name : Eternity.[Eternite].2016.720p.BRRip.AC3.x264.HORiZON-ArtSubs \r\nFormat : Matroska \r\nFormat version : Version 4 / Version 2 \r\nFile size : 1.65 GiB \r\nDuration : 1h 55mn \r\nOverall bit rate : 2 050 Kbps \r\nMovie name : Eternity 2016 720p BluRay DD5.1 x264-HDS \r\nEncoded date : UTC 2017-08-16T18:56:06Z \r\nWriting application : HandBrake 1.0.7 2017040900 \r\nWriting library : Lavf57.7.2 \r\n\r\nVideo \r\nID : 1 \r\nFormat : AVC \r\nFormat/Info : Advanced Video Codec \r\nFormat profile : <a class=\"__cf_email__\" href=\"/cdn-cgi/l/email-protection\" data-cfemail=\"440c2d232c0408706a75\">[email&#xA0;protected]</a><script data-cfhash=\"f9e31\" type=\"text/javascript\">/* <![CDATA[ */!function(t,e,r,n,c,a,p){try{t=document.currentScript||function(){for(t=document.getElementsByTagName('script'),e=t.length;e--;)if(t[e].getAttribute('data-cfhash'))return t[e]}();if(t&&(c=t.previousSibling)){p=t.parentNode;if(a=c.getAttribute('data-cfemail')){for(e='',r='0x'+a.substr(0,2)|0,n=2;a.length-n;n+=2)e+='%'+('0'+('0x'+a.substr(n,2)^r).toString(16)).slice(-2);p.replaceChild(document.createTextNode(decodeURIComponent(e)),c)}p.removeChild(t)}}catch(u){}}()/* ]]> */</script> \r\nFormat settings, CABAC : Yes \r\nFormat settings, ReFrames : 4 frames \r\nCodec ID : V_MPEG4/ISO/AVC \r\nDuration : 1h 55mn \r\nBit rate : 1 369 Kbps \r\nWidth : 1 280 pixels \r\nHeight : 536 pixels \r\nDisplay aspect ratio : 2.40:1 \r\nFrame rate mode : Constant \r\nFrame rate : 24.000 fps \r\nColor space : YUV \r\nChroma subsampling : 4:2:0 \r\nBit depth : 8 bits \r\nScan type : Progressive \r\nBits/(Pixel*Frame) : 0.083 \r\nStream size : 1.10 GiB (67%) \r\nWriting library : x264 core 148 r2708 86b7198 \r\nDefault : Yes \r\nForced : No \r\n\r\nAudio \r\nID : 2 \r\nFormat : AC-3 \r\nFormat/Info : Audio Coding 3 \r\nMode extension : CM (complete main) \r\nFormat settings, Endianness : Big \r\nCodec ID : A_AC3 \r\nDuration : 1h 55mn \r\nBit rate mode : Constant \r\nBit rate : 640 Kbps \r\nChannel count : 6 channels \r\nChannel positions : Front: L C R, Side: L R, LFE \r\nSampling rate : 48.0 KHz \r\nBit depth : 16 bits \r\nCompression mode : Lossy \r\nStream size : 527 MiB (31%) \r\nTitle : Surround \r\nLanguage : French \r\nDefault : Yes \r\nForced : No \r\n\r\nText \r\nID : 3 \r\nFormat : ASS \r\nCodec ID : S_TEXT/ASS \r\nCodec ID/Info : Advanced Sub Station Alpha \r\nCompression mode : Lossless \r\nLanguage : Portuguese \r\nDefault : No \r\nForced : No","last_updated":"2017-08-17T12:00:20.479Z","parsed":{"xt":"urn:btih:3a7c571017582d2093f8d2df7e67a37140216176","dn":"Eternity.[Eternite].2016.720p.BRRip.AC3.x264.HORiZON-ArtSubs ","tr":["udp://exodus.desync.com:6969","udp://open.demonii.com:1337","udp://tracker.coppersurfer.tk:6969","udp://tracker.leechers-paradise.org:6969","udp://zer0day.ch:1337"],"infoHash":"3a7c571017582d2093f8d2df7e67a37140216176","infoHashBuffer":{"type":"Buffer","data":[58,124,87,16,23,88,45,32,147,248,210,223,126,103,163,113,64,33,97,118]},"name":"Eternity.[Eternite].2016.720p.BRRip.AC3.x264.HORiZON-ArtSubs ","announce":["udp://exodus.desync.com:6969","udp://open.demonii.com:1337","udp://tracker.coppersurfer.tk:6969","udp://tracker.leechers-paradise.org:6969","udp://zer0day.ch:1337"],"urlList":[]}}